<svg width="31" height="65" viewBox="0 0 31 65" fill="none" xmlns="http://www.w3.org/2000/svg">
<g clip-path="url(#clip0_845_10405)">
<path d="M20.6784 5.52089C20.6784 8.57614 18.2872 11.0418 15.3626 11.0418C12.4381 11.0418 10.0469 8.55827 10.0469 5.52089C10.0469 2.48351 12.4381 0 15.3626 0C18.2872 0 20.6784 2.48351 20.6784 5.52089Z" fill="#03FFE2"/>
<path d="M28.2987 42.2019L20.6777 20.4399L20.6261 20.2255C20.6261 19.9218 20.8841 19.6538 21.211 19.6538C21.4862 19.6538 21.7099 19.8503 21.7787 20.1004L26.9568 34.1796C27.3009 34.9836 28.7115 35.5196 29.6577 35.5196C30.8963 35.5196 31.034 32.9825 30.9995 32.8396L25.8214 18.957C25.3741 15.8481 22.3464 12.7393 18.8886 12.7393H12.1277C8.66991 12.7393 5.43573 15.8481 4.97124 18.957L0.0339527 32.8396C-0.086469 33.1076 0.0339528 35.5196 1.3758 35.5196C2.42518 35.5196 3.81864 35.1444 4.07668 34.1796L9.08279 20.0468C9.1688 19.8146 9.39244 19.6716 9.63329 19.6716C9.94294 19.6716 10.2182 19.9396 10.2182 20.2434L10.1838 20.4578L2.73484 42.2019C2.73484 42.2019 2.73484 43.4704 2.73484 43.5419C2.73484 44.0064 3.80143 44.8819 4.28312 44.8819H9.08279V62.4273C9.08279 63.8209 10.2698 64.9822 11.6633 64.9822C13.0567 64.9822 14.2437 63.8209 14.2437 62.4273V44.8641C14.2437 44.4888 16.8242 44.5067 16.8242 44.8641V62.2843C16.8242 63.678 18.0112 64.9644 19.4046 64.9644C20.7981 64.9644 21.9851 63.678 21.9851 62.2843V44.8641H26.974C27.4385 44.8641 28.3159 43.9886 28.3159 43.524C28.3159 43.4168 28.3503 42.2733 28.3159 42.184" fill="#03FFE2"/>
</g>
<defs>
<clipPath id="clip0_845_10405">
<rect width="31" height="65" fill="white"/>
</clipPath>
</defs>
</svg>
