<svg width="23" height="65" viewBox="0 0 23 65" fill="none" xmlns="http://www.w3.org/2000/svg">
<g clip-path="url(#clip0_845_10397)">
<mask id="mask0_845_10397" style="mask-type:luminance" maskUnits="userSpaceOnUse" x="0" y="0" width="23" height="65">
<path d="M23 0H0V65H23V0Z" fill="white"/>
</mask>
<g mask="url(#mask0_845_10397)">
<path d="M7.34141 64.8458C6.40079 64.505 5.65527 63.7376 5.44272 62.8905C5.35786 62.5533 5.31741 55.6521 5.31661 41.4291V20.4645H4.36251V28.3783C4.36251 36.1363 4.35775 36.3019 4.11586 36.7705C3.80258 37.3785 3.45124 37.6632 2.76361 37.8664C1.74686 38.1669 0.634925 37.5931 0.235201 36.562C-0.0217647 35.8989 -0.0051095 18.2096 0.253442 17.1128C0.836373 14.6416 2.72396 12.6163 4.92561 12.1012C6.08513 11.8296 16.8071 11.827 17.9634 12.0977C19.1412 12.3727 20.1532 12.9965 21.0478 13.9995C21.9686 15.0306 22.3985 15.8671 22.7189 17.2512C22.9425 18.2157 22.9544 18.7326 22.9544 27.1388C22.9544 34.8223 22.9299 36.0723 22.7712 36.4928C22.5246 37.1455 22.27 37.4389 21.7029 37.7271C20.7615 38.2046 19.5655 37.8971 19.0095 37.0359L18.7232 36.5927L18.6907 28.529L18.6582 20.4662H17.7104V41.5334C17.7104 64.6268 17.7572 63.0938 17.0189 63.954C16.4351 64.6329 15.8403 64.8905 14.8505 64.8905C13.8607 64.8905 13.2651 64.6338 12.6814 63.954C11.9565 63.1113 11.9898 63.7648 11.9898 50.2225V37.8436H11.0365V50.2225C11.0365 60.3107 11.0063 62.6794 10.8755 63.0246C10.6352 63.6579 10.1133 64.2816 9.56448 64.59C9.03627 64.8878 7.8363 65.0262 7.34061 64.8467L7.34141 64.8458ZM10.0221 10.6251C8.58103 10.0574 7.69117 9.18056 7.06065 7.71149C6.71168 6.89768 6.6871 6.74175 6.6871 5.38831C6.6871 4.03487 6.70851 3.88858 7.07255 3.07301C8.88955 -1.00306 14.1343 -1.0127 15.9482 3.05637C16.3233 3.89909 16.3415 4.00509 16.3415 5.45489C16.3415 6.90469 16.3146 7.03258 16.0084 7.72113C15.4945 8.87834 14.7339 9.72194 13.6965 10.2887C12.8908 10.7285 12.6861 10.7837 11.709 10.8205C10.889 10.852 10.4726 10.8038 10.0229 10.626L10.0221 10.6251Z" fill="#03FFE2"/>
</g>
</g>
<defs>
<clipPath id="clip0_845_10397">
<rect width="23" height="65" fill="white"/>
</clipPath>
</defs>
</svg>
